<?xml version="1.0" encoding="utf-8"?>
<!-- Generator: Adobe Illustrator 15.0.0, SVG Export Plug-In . SVG Version: 6.00 Build 0)  -->
<!DOCTYPE svg PUBLIC "-//W3C//DTD SVG 1.1//EN" "http://www.w3.org/Graphics/SVG/1.1/DTD/svg11.dtd">
<svg version="1.1" id="Layer_1" xmlns="http://www.w3.org/2000/svg" xmlns:xlink="http://www.w3.org/1999/xlink" x="0px" y="0px"
	 width="901.455px" height="190.49px" viewBox="0 0 901.455 190.49" enable-background="new 0 0 901.455 190.49"
	 xml:space="preserve">
<g>
	
		<ellipse transform="matrix(0.9655 -0.2603 0.2603 0.9655 -8.9489 202.8716)" fill="none" stroke="#FC22A4" stroke-width="3" stroke-miterlimit="10" cx="761.518" cy="135.225" rx="36.581" ry="51.458"/>
	<path fill="none" stroke="#FC22A4" stroke-width="3" stroke-miterlimit="10" d="M841.987,50.583"/>
	<path fill="none" stroke="#FC22A4" stroke-width="3" stroke-miterlimit="10" d="M841.987,50.583
		c9.072-2.445,18.59-0.068,26.305,5.031c8.882,5.87,15.401,14.932,19.243,24.773c4.188,10.729,5.445,22.785,2.819,34.05
		c-2.11,9.056-6.889,17.798-14.616,23.224"/>
	<line fill="none" stroke="#FC22A4" stroke-width="3" stroke-miterlimit="10" x1="741.761" y1="87.716" x2="841.987" y2="50.583"/>
	
		<line fill="none" stroke="#FC22A4" stroke-width="3" stroke-miterlimit="10" x1="777.438" y1="183.713" x2="876.014" y2="137.458"/>
	
		<ellipse transform="matrix(0.9655 -0.2603 0.2603 0.9655 -8.8466 202.7657)" fill="none" stroke="#FC22A4" stroke-width="3" stroke-miterlimit="10" cx="761.188" cy="134.786" rx="32.252" ry="45.369"/>
	
		<ellipse transform="matrix(0.9655 -0.2603 0.2603 0.9655 -8.7569 202.7282)" fill="none" stroke="#FC22A4" stroke-width="3" stroke-miterlimit="10" cx="761.093" cy="134.429" rx="27.123" ry="38.155"/>
	
		<ellipse transform="matrix(0.9655 -0.2603 0.2603 0.9655 -8.7951 202.6395)" fill="none" stroke="#FC22A4" stroke-width="3" stroke-miterlimit="10" cx="760.74" cy="134.529" rx="21.024" ry="29.575"/>
	<path fill="none" stroke="#FC22A4" stroke-width="3" stroke-miterlimit="10" d="M787.45,70.707
		c9.357-2.589,19.176-0.072,27.133,5.327c9.162,6.216,15.887,15.81,19.85,26.231c4.32,11.36,5.617,24.124,2.908,36.053
		c-2.176,9.588-7.105,18.845-15.076,24.589"/>
	<path fill="none" stroke="#FC22A4" stroke-width="3" stroke-miterlimit="10" d="M800.372,65.995
		c9.455-2.541,19.375-0.071,27.416,5.225c9.258,6.098,16.053,15.508,20.056,25.73c4.365,11.144,5.677,23.664,2.939,35.364
		c-2.2,9.404-7.181,18.484-15.234,24.119"/>
	<path fill="none" stroke="#FC22A4" stroke-width="3" stroke-miterlimit="10" d="M774.017,75.888
		c9.623-2.594,19.72-0.072,27.903,5.337c9.422,6.228,16.338,15.84,20.414,26.28c4.441,11.382,5.775,24.17,2.99,36.12
		c-2.238,9.606-7.309,18.881-15.505,24.635"/>
	<path fill="none" stroke="#FC22A4" stroke-width="3" stroke-miterlimit="10" d="M814.799,60.639
		c9.505-2.5,19.479-0.07,27.561,5.141c9.307,6.001,16.139,15.262,20.163,25.321c4.388,10.966,5.706,23.287,2.954,34.801
		c-2.211,9.255-7.219,18.19-15.314,23.735"/>
</g>
<g>
	
		<ellipse transform="matrix(-0.9655 -0.2603 0.2603 -0.9655 248.0452 225.2964)" fill="none" stroke="#FC22A4" stroke-width="3" stroke-miterlimit="10" cx="138.94" cy="96.225" rx="36.581" ry="51.458"/>
	<path fill="none" stroke="#FC22A4" stroke-width="3" stroke-miterlimit="10" d="M58.471,11.583"/>
	<path fill="none" stroke="#FC22A4" stroke-width="3" stroke-miterlimit="10" d="M58.471,11.583
		c-9.072-2.445-18.59-0.068-26.305,5.031c-8.882,5.87-15.401,14.932-19.243,24.773c-4.188,10.729-5.445,22.785-2.819,34.05
		c2.11,9.056,6.889,17.798,14.616,23.224"/>
	<line fill="none" stroke="#FC22A4" stroke-width="3" stroke-miterlimit="10" x1="158.697" y1="48.716" x2="58.471" y2="11.583"/>
	<line fill="none" stroke="#FC22A4" stroke-width="3" stroke-miterlimit="10" x1="123.02" y1="144.713" x2="24.444" y2="98.458"/>
	
		<ellipse transform="matrix(-0.9655 -0.2603 0.2603 -0.9655 248.809 224.5197)" fill="none" stroke="#FC22A4" stroke-width="3" stroke-miterlimit="10" cx="139.27" cy="95.786" rx="32.252" ry="45.369"/>
	
		<ellipse transform="matrix(-0.9655 -0.2603 0.2603 -0.9655 249.0883 223.8418)" fill="none" stroke="#FC22A4" stroke-width="3" stroke-miterlimit="10" cx="139.365" cy="95.429" rx="27.123" ry="38.155"/>
	
		<ellipse transform="matrix(-0.9655 -0.2603 0.2603 -0.9655 249.7571 224.1305)" fill="none" stroke="#FC22A4" stroke-width="3" stroke-miterlimit="10" cx="139.718" cy="95.529" rx="21.024" ry="29.575"/>
	<path fill="none" stroke="#FC22A4" stroke-width="3" stroke-miterlimit="10" d="M113.008,31.707
		c-9.357-2.589-19.176-0.072-27.133,5.327c-9.162,6.216-15.887,15.81-19.85,26.231c-4.32,11.36-5.617,24.124-2.908,36.053
		c2.176,9.588,7.105,18.845,15.076,24.589"/>
	<path fill="none" stroke="#FC22A4" stroke-width="3" stroke-miterlimit="10" d="M100.086,26.995
		c-9.455-2.541-19.375-0.071-27.416,5.225c-9.258,6.098-16.053,15.508-20.056,25.73c-4.365,11.144-5.677,23.664-2.939,35.364
		c2.2,9.404,7.181,18.484,15.234,24.119"/>
	<path fill="none" stroke="#FC22A4" stroke-width="3" stroke-miterlimit="10" d="M126.441,36.888
		c-9.623-2.594-19.72-0.072-27.903,5.337c-9.422,6.228-16.338,15.84-20.414,26.28c-4.441,11.382-5.775,24.17-2.99,36.12
		c2.238,9.606,7.309,18.881,15.505,24.635"/>
	<path fill="none" stroke="#FC22A4" stroke-width="3" stroke-miterlimit="10" d="M85.659,21.639
		c-9.505-2.5-19.479-0.07-27.561,5.141c-9.307,6.001-16.139,15.262-20.163,25.321c-4.388,10.966-5.706,23.287-2.954,34.801
		c2.211,9.255,7.219,18.19,15.314,23.735"/>
</g>
<g>
	<g>
		<path fill="#FC22A4" d="M142.74,97.295c12.648-16.803,40.264-9.29,55.459-0.743c6.69,3.763,11.641,8.163,14.82,15.109
			c3.048,6.657,5.343,14.363,5.299,21.726c-0.013,2.156-0.311,4.849-2.366,5.999c-2.962,1.657-8.116-1.512-10.126-3.453
			c-5.823-5.625-1.477-16.392,1.454-22.298c3.513-7.077,8.509-14.24,15.648-17.935c11.628-6.017,24.982-8.606,37.993-8.644
			c24.11-0.07,43.951,11.727,57.983,30.778c6.198,8.415,11.617,18.528,11.77,29.202c0.142,9.826-8.842,21.315-18.212,12.365
			c-7.2-6.878-4.34-21.497,1.582-28.245c6.773-7.718,18.701-9.872,28.395-10.553c29.747-2.088,59.352,2.22,88.851,5.413
			c12.877,1.394,25.877,2.224,38.795,0.896c9.74-1.001,21.766-3.194,29.451-9.758c8.287-7.078,17.356-25.186,11.223-35.738
			c-3.478-5.983-12.863-6.107-18.438-3.447c-7.744,3.696-6.912,14.018-5.758,21.058c1.445,8.814,4.736,17.067,11.292,23.262
			c7.784,7.356,18.531,12.011,28.952,13.996c8.603,1.638,16.815,0.73,24.183-4.084c7.384-4.825,14.291-11.916,17.836-20.066
			c3.118-7.167,2.209-16.911-5.925-20.364c-8.223-3.491-11.627,6.863-10.555,13.124c3.893,22.718,37.631,17.616,53.032,25.353
			c10.469,5.26,16.418,14.688,18.899,25.879c1.499,6.761-0.241,25.893-10.633,15.403c-4.44-4.482-2.959-13.793-1.834-19.219
			c1.426-6.876,4.292-11.925,9.374-16.757c11.013-10.47,26.899-15.438,41.523-18.064c15.809-2.84,33.021-2.396,48.773,0.541
			c16.169,3.015,30.941,10.123,44.635,19.053c3.794,2.474,7.298-3.589,3.533-6.044c-21.31-13.898-44.247-21.475-69.721-22.166
			c-23.338-0.633-48.185,3.232-67.696,16.886c-8.579,6.004-14.273,13.346-16.89,23.478c-2.303,8.921-2.797,19.752,3.352,27.242
			c5.921,7.211,15.646,6.83,20.312-1.077c4.898-8.301,3.135-18.914,0.264-27.527c-3.31-9.928-10.145-17.792-19.133-23.011
			c-9.605-5.576-21.068-5.891-31.694-8.155c-7.438-1.585-23.84-7.16-18.725-18.053c0.717-1.527,2.536,1.257,2.99,1.947
			c0.972,1.479,1.101,3.393,0.843,5.099c-0.703,4.647-3.852,8.833-6.851,12.273c-5.647,6.479-12.668,11.868-21.5,12.101
			c-11.085,0.291-23.067-4.917-31.466-11.914c-7.201-6-10.082-15.447-10.86-24.541c-0.249-2.91-0.55-8.362,2.941-9.521
			c2.36-0.784,7.152-1.647,8.898,0.848c3.295,4.707-1.11,13.619-3.307,17.884c-4.112,7.99-9.067,11.532-17.676,14.291
			c-24.073,7.713-51.33,1.922-75.791-0.779c-15.992-1.765-32.027-3.151-48.125-3.262c-12.633-0.088-25.797,0.106-37.74,4.695
			c-8.044,3.09-15.116,8.716-18.292,16.92c-3.34,8.629-3.729,20.408,2.292,27.968c5.571,6.995,15.216,9.415,22.76,4.028
			c7.732-5.521,9.778-16.308,8.396-25.15c-3.048-19.503-18.092-37.891-33.875-48.976c-19.849-13.94-46.389-15.219-69.138-8.762
			c-9.224,2.618-18.15,6.384-24.534,13.702c-5.556,6.368-9.886,14.047-12.275,22.156c-1.931,6.552-2.036,14.299,2.356,19.9
			c4.126,5.261,12.698,8.929,19.166,6.107c12.229-5.334,4.675-26.638,1.155-35.163c-6.092-14.757-20.09-22.509-34.882-27.034
			c-16.593-5.077-37.225-4.704-48.51,10.288C133.979,97.372,140.062,100.854,142.74,97.295L142.74,97.295z"/>
	</g>
</g>
</svg>
